<?xml version="1.0" encoding="utf-8"?>
<?xml-stylesheet type="text/xsl" href="rss1.xsl"?>
<rss version="2.0" xmlns:atom="http://www.w3.org/2005/Atom" xmlns:content="http://purl.org/rss/1.0/modules/content/" xmlns:dc="http://purl.org/dc/elements/1.1/" xmlns:media="http://search.yahoo.com/mrss/">
<channel>
 <title>Getty</title>
 <link>http://www.gettyimg.com/</link>
 <atom:link href="http://www.gettyimg.com/" rel="self" type="application/rss+xml" />

 
                <item>
                <title><![CDATA[【HD Live Performances】HDTV - Madonna - The Confessions Tour - 2007- Full HD 1080p DTS 2.0 /DTS 5.1 (UNCUT)]]></title>
                <link><![CDATA[https://sharemania.us/threads/madonna-the-confessions-tour-2007-full-hd-1080p-dts-2-0-dts-5-1-uncut.244361/]]></link>
                <description><![CDATA[<article>
<blockquote class="messageText SelectQuoteContainer ugc baseHtml">
<img src="https://i.imgur.com/c8Nehsr.jpeg" class="bbCodeImage LbImage" alt="[​IMG]" data-url="https://i.imgur.com/c8Nehsr.jpeg" style=""><br>
<img src="https://i.imgur.com/aAXZgne.jpeg" class="bbCodeImage LbImage" alt="[​IMG]" data-url="https://i.imgur.com/aAXZgne.jpeg" style=""> <img src="https://i.imgur.com/h5XVhq9.jpeg" class="bbCodeImage LbImage" alt="[​IMG]" data-url="https://i.imgur.com/h5XVhq9.jpeg" style=""> <img src="https://i.imgur.com/dpqjzOl.jpeg" class="bbCodeImage LbImage" alt="[​IMG]" data-url="https://i.imgur.com/dpqjzOl.jpeg" style=""> <img src="https://i.imgur.com/TPg0soI.jpeg" class="bbCodeImage LbImage" alt="[​IMG]" data-url="https://i.imgur.com/TPg0soI.jpeg" style=""> <img src="https://i.imgur.com/Kh6539D.jpeg" class="bbCodeImage LbImage" alt="[​IMG]" data-url="https://i.imgur.com/Kh6539D.jpeg" style=""><br>
<br>
This is an uncut version of the Confessions Tour delivered in 1080p quality. As you probably know the complete tour was never released in an HD format, only the censured TV-cut 1:30h version was broadcasted on some networks, the full version of the show can only be watched in the DVD-release, so this torrent aims to bring the best of both worlds, the NBC HDTV feed is used during most of the scenes, while the cut sections of the show use upscaled images recovered from the Confessions DVD-release.<br>
<br>
All credits to: lss1995<br>
<br>
<div class="ToggleTriggerAnchor bbCodeSpoilerContainer">
<button type="button" class="button bbCodeSpoilerButton ToggleTrigger Tooltip JsOnly" data-target="> .SpoilerTarget"><span>Spoiler: <span class="SpoilerTitle">MediaInfo</span></span></button>
<div class="SpoilerTarget bbCodeSpoilerText">Format : Matroska<br>
Format version : Version 2<br>
File size : 17.3 GiB<br>
Duration : 2 h 1 min<br>
Overall bit rate mode : Variable<br>
Overall bit rate : 20.4 Mb/s<br>
Frame rate : 25.000 FPS<br>
Movie name : Madonna: The Confessions Tour1080p<br>
Encoded date : 2013-10-06 09:55:47 UTC<br>
Writing application : mkvmerge v5.6.0 ('Kenya Kane') built on May 27 2012 16:44:04<br>
Writing library : libebml v1.2.3 + libmatroska v1.3.0<br>
Cover : Yes<br>
Attachments : Cover Front.jpg<br>
<br>
Video<br>
ID : 1<br>
Format : AVC<br>
Format/Info : Advanced Video Codec<br>
Format profile : High@L4.1<br>
Format settings : CABAC / 4 Ref Frames<br>
Format settings, CABAC : Yes<br>
Format settings, Reference fra : 4 frames<br>
Format settings, Slice count : 4 slices per frame<br>
Codec ID : V_MPEG4/ISO/AVC<br>
Duration : 2 h 1 min<br>
Bit rate mode : Variable<br>
Bit rate : 16.9 Mb/s<br>
Maximum bit rate : 40.0 Mb/s<br>
Width : 1 920 pixels<br>
Height : 1 080 pixels<br>
Display aspect ratio : 16:9<br>
Frame rate mode : Constant<br>
Frame rate : 25.000 FPS<br>
Color space : YUV<br>
Chroma subsampling : 4:2:0<br>
Bit depth : 8 bits<br>
Scan type : Progressive<br>
Bits/(Pixel*Frame) : 0.327<br>
Stream size : 14.3 GiB (83%)<br>
Title : Madonna: The Confessions Tour1080p<br>
Writing library : x264 core 130 r2273 b3065e6<br>
Encoding settings : cabac=1 / ref=4 / deblock=1:-3:-3 / analyse=0x3:0x133 / me=umh / subme=9 / psy=1 / psy_rd=1.00:0.15 / mixed_ref=1 / me_range=32 / chroma_me=1 / trellis=2 / 8x8dct=1 / cqm=0 / deadzone=21,11 / fast_pskip=1 / chroma_qp_offset=-3 / threads=3 / lookahead_threads=1 / sliced_threads=0 / slices=4 / nr=0 / decimate=1 / interlaced=0 / bluray_compat=1 / constrained_intra=0 / bframes=3 / b_pyramid=0 / b_adapt=2 / b_bias=0 / direct=3 / weightb=1 / open_gop=1 / weightp=1 / keyint=25 / keyint_min=1 / scenecut=40 / intra_refresh=0 / rc_lookahead=25 / rc=crf / mbtree=0 / crf=18.0 / qcomp=0.60 / qpmin=0 / qpmax=51 / qpstep=4 / vbv_maxrate=40000 / vbv_bufsize=30000 / crf_max=0.0 / nal_hrd=vbr / ip_ratio=1.40 / pb_ratio=1.30 / aq=1:1.00<br>
Language : English<br>
Default : Yes<br>
Forced : No<br>
Color range : Limited<br>
Color primaries : BT.709<br>
Transfer characteristics : BT.709<br>
Matrix coefficients : BT.709<br>
<br>
Audio #1<br>
ID : 2<br>
Format : DTS<br>
Format/Info : Digital Theater Systems<br>
Codec ID : A_DTS<br>
Duration : 2 h 1 min<br>
Bit rate mode : Constant<br>
Bit rate : 1 510 kb/s<br>
Channel(s) : 6 channels<br>
Channel layout : C L R Ls Rs LFE<br>
Sampling rate : 48.0 kHz<br>
Frame rate : 93.750 FPS (512 SPF)<br>
Bit depth : 24 bits<br>
Compression mode : Lossy<br>
Stream size : 1.28 GiB (7%)<br>
Title : DTS 5.1_V_ATAKy<br>
Language : English<br>
Default : Yes<br>
Forced : No<br>
<br>
Audio #2<br>
ID : 3<br>
Format : DTS<br>
Format/Info : Digital Theater Systems<br>
Codec ID : A_DTS<br>
Duration : 2 h 1 min<br>
Bit rate mode : Constant<br>
Bit rate : 1 588 kb/s<br>
Channel(s) : 2 channels<br>
Channel layout : L R<br>
Sampling rate : 48.0 kHz<br>
Frame rate : 46.875 FPS (1024 SPF)<br>
Bit depth : 16 bits<br>
Compression mode : Lossy<br>
Stream size : 1.35 GiB (8%)<br>
Title : DTS_2.0_V_ATAKy<br>
Language : English<br>
Default : No<br>
Forced : No<br>
<br>
Menu<br>
00:00:00.000 : en:01 - Future Lovers<br>
00:01:57.000 : en:02 - I Feel Love<br>
00:08:03.960 : en:03 - Get Together<br>
00:13:23.520 : en:04 - Like A Virgin<br>
00:17:32.480 : en:05 - Jump<br>
00:22:28.880 : en:06 - Dancers' Confessions<br>
00:26:23.920 : en:07 - Live To Tell<br>
00:31:34.480 : en:08 - Forbidden Love<br>
00:35:59.320 : en:09 - Isaac<br>
00:42:45.120 : en:10 - Sorry<br>
00:47:47.080 : en:11 - Like It Or Not<br>
00:52:38.640 : en:12 - Sorry (Remix)<br>
00:56:15.880 : en:13 - I Love New York<br>
01:01:59.520 : en:14 - Ray Of Light<br>
01:08:25.920 : en:15 - Let It Will Be<br>
01:15:58.280 : en:16 - Drowned World/Substitute For Love<br>
01:20:58.080 : en:17 - Paradise (Not For Me)<br>
01:26:03.880 : en:18 - Music Inferno<br>
01:33:53.080 : en:19 - Erotica<br>
01:38:40.640 : en:20 - La Isla Bonita<br>
01:43:43.120 : en:21 - Lucky Star<br>
01:48:19.560 : en:22 - Hung Up<br>
01:57:44.000 : en:23 - Credits</div>
</div><br>
<div class="bbCodeBlock bbCodeVfcHH HiddenContent">
<div class="attribution type">Hidden Content:</div>
<blockquote>You must reply before you can see the hidden data contained here.</blockquote>
</div>
<div class="messageTextEndMarker">&nbsp;</div>
</blockquote>
</article>]]></description>
                <author><![CDATA[JrAleixo]]></author>
                </item>

                </channel></rss>